<mxfile host="www.draw.io" modified="2023-05-31T14:00:06.984Z" agent="Mozilla/5.0 (Windows NT 10.0; Win64; x64) AppleWebKit/537.36 (KHTML, like Gecko) Chrome/113.0.0.0 Safari/537.36 Edg/113.0.1774.57" etag="9oceU0jpB0k6NrRbADPd" version="21.3.6" type="device">
  <diagram name="Page-1" id="1ebh3NyT0FTJHNrlFFyX">
    <mxGraphModel dx="801" dy="540" grid="1" gridSize="10" guides="1" tooltips="1" connect="1" arrows="1" fold="1" page="1" pageScale="1" pageWidth="850" pageHeight="1100" math="0" shadow="0">
      <root>
        <mxCell id="0" />
        <mxCell id="1" parent="0" />
        <mxCell id="vZGH5NI2vkxD4eYKZadg-1" value="&lt;span style=&quot;font-size: 10px;&quot;&gt;M&lt;sub&gt;1&lt;/sub&gt;&lt;/span&gt;" style="ellipse;whiteSpace=wrap;html=1;aspect=fixed;" vertex="1" parent="1">
          <mxGeometry x="360" y="320" width="120" height="120" as="geometry" />
        </mxCell>
        <mxCell id="vZGH5NI2vkxD4eYKZadg-3" value="&lt;span style=&quot;font-size: 10px;&quot;&gt;M&lt;sub&gt;2&lt;/sub&gt;&lt;/span&gt;" style="ellipse;whiteSpace=wrap;html=1;aspect=fixed;" vertex="1" parent="1">
          <mxGeometry x="640" y="280" width="40" height="40" as="geometry" />
        </mxCell>
        <mxCell id="vZGH5NI2vkxD4eYKZadg-4" value="&lt;span style=&quot;font-size: 10px;&quot;&gt;M&lt;sub&gt;3&lt;/sub&gt;&lt;/span&gt;" style="ellipse;whiteSpace=wrap;html=1;aspect=fixed;" vertex="1" parent="1">
          <mxGeometry x="480" y="40" width="80" height="80" as="geometry" />
        </mxCell>
        <mxCell id="vZGH5NI2vkxD4eYKZadg-9" value="" style="endArrow=none;startArrow=classic;html=1;rounded=0;endFill=0;" edge="1" parent="1" source="vZGH5NI2vkxD4eYKZadg-1" target="vZGH5NI2vkxD4eYKZadg-3">
          <mxGeometry width="50" height="50" relative="1" as="geometry">
            <mxPoint x="440" y="320" as="sourcePoint" />
            <mxPoint x="490" y="270" as="targetPoint" />
          </mxGeometry>
        </mxCell>
        <mxCell id="vZGH5NI2vkxD4eYKZadg-10" value="F&lt;sub&gt;1 on 2&lt;/sub&gt;" style="edgeLabel;html=1;align=center;verticalAlign=middle;resizable=0;points=[];" vertex="1" connectable="0" parent="vZGH5NI2vkxD4eYKZadg-9">
          <mxGeometry x="0.1152" y="-1" relative="1" as="geometry">
            <mxPoint as="offset" />
          </mxGeometry>
        </mxCell>
        <mxCell id="vZGH5NI2vkxD4eYKZadg-11" value="" style="endArrow=classic;startArrow=none;html=1;rounded=0;entryX=0.652;entryY=0.969;entryDx=0;entryDy=0;entryPerimeter=0;exitX=0.336;exitY=0.033;exitDx=0;exitDy=0;exitPerimeter=0;startFill=0;" edge="1" parent="1" source="vZGH5NI2vkxD4eYKZadg-3" target="vZGH5NI2vkxD4eYKZadg-4">
          <mxGeometry width="50" height="50" relative="1" as="geometry">
            <mxPoint x="440" y="230" as="sourcePoint" />
            <mxPoint x="490" y="180" as="targetPoint" />
          </mxGeometry>
        </mxCell>
        <mxCell id="vZGH5NI2vkxD4eYKZadg-12" value="F&lt;sub&gt;2 on 3&lt;/sub&gt;" style="edgeLabel;html=1;align=center;verticalAlign=middle;resizable=0;points=[];" vertex="1" connectable="0" parent="vZGH5NI2vkxD4eYKZadg-11">
          <mxGeometry x="0.1305" relative="1" as="geometry">
            <mxPoint as="offset" />
          </mxGeometry>
        </mxCell>
        <mxCell id="vZGH5NI2vkxD4eYKZadg-13" value="" style="endArrow=none;startArrow=classic;html=1;rounded=0;entryX=0.312;entryY=0.957;entryDx=0;entryDy=0;entryPerimeter=0;exitX=0.586;exitY=0.026;exitDx=0;exitDy=0;exitPerimeter=0;endFill=0;" edge="1" parent="1" source="vZGH5NI2vkxD4eYKZadg-1" target="vZGH5NI2vkxD4eYKZadg-4">
          <mxGeometry width="50" height="50" relative="1" as="geometry">
            <mxPoint x="583" y="291" as="sourcePoint" />
            <mxPoint x="542" y="168" as="targetPoint" />
          </mxGeometry>
        </mxCell>
        <mxCell id="vZGH5NI2vkxD4eYKZadg-14" value="F&lt;sub&gt;1 on 3&lt;/sub&gt;" style="edgeLabel;html=1;align=center;verticalAlign=middle;resizable=0;points=[];" vertex="1" connectable="0" parent="vZGH5NI2vkxD4eYKZadg-13">
          <mxGeometry x="0.1305" relative="1" as="geometry">
            <mxPoint as="offset" />
          </mxGeometry>
        </mxCell>
        <mxCell id="vZGH5NI2vkxD4eYKZadg-15" value="" style="endArrow=classic;html=1;rounded=0;exitX=0.5;exitY=1;exitDx=0;exitDy=0;dashed=1;" edge="1" parent="1" source="vZGH5NI2vkxD4eYKZadg-3">
          <mxGeometry width="50" height="50" relative="1" as="geometry">
            <mxPoint x="600" y="300" as="sourcePoint" />
            <mxPoint x="660" y="440" as="targetPoint" />
            <Array as="points">
              <mxPoint x="660" y="370" />
            </Array>
          </mxGeometry>
        </mxCell>
        <mxCell id="vZGH5NI2vkxD4eYKZadg-16" value="F&lt;sub&gt;1 on 2,y&lt;/sub&gt;" style="edgeLabel;html=1;align=center;verticalAlign=middle;resizable=0;points=[];" vertex="1" connectable="0" parent="vZGH5NI2vkxD4eYKZadg-15">
          <mxGeometry x="-0.1995" y="1" relative="1" as="geometry">
            <mxPoint as="offset" />
          </mxGeometry>
        </mxCell>
        <mxCell id="vZGH5NI2vkxD4eYKZadg-17" value="" style="endArrow=classic;html=1;rounded=0;exitX=0;exitY=0.5;exitDx=0;exitDy=0;dashed=1;" edge="1" parent="1" source="vZGH5NI2vkxD4eYKZadg-3">
          <mxGeometry width="50" height="50" relative="1" as="geometry">
            <mxPoint x="600" y="270" as="sourcePoint" />
            <mxPoint x="520" y="300" as="targetPoint" />
            <Array as="points" />
          </mxGeometry>
        </mxCell>
        <mxCell id="vZGH5NI2vkxD4eYKZadg-18" value="F&lt;sub&gt;1 on 2,x&lt;/sub&gt;" style="edgeLabel;html=1;align=center;verticalAlign=middle;resizable=0;points=[];" vertex="1" connectable="0" parent="vZGH5NI2vkxD4eYKZadg-17">
          <mxGeometry x="-0.1995" y="1" relative="1" as="geometry">
            <mxPoint x="-42" y="9" as="offset" />
          </mxGeometry>
        </mxCell>
        <mxCell id="vZGH5NI2vkxD4eYKZadg-19" value="" style="endArrow=classic;html=1;rounded=0;exitX=0.5;exitY=0;exitDx=0;exitDy=0;dashed=1;" edge="1" parent="1" source="vZGH5NI2vkxD4eYKZadg-3">
          <mxGeometry width="50" height="50" relative="1" as="geometry">
            <mxPoint x="670" y="330" as="sourcePoint" />
            <mxPoint x="660" y="200" as="targetPoint" />
            <Array as="points" />
          </mxGeometry>
        </mxCell>
        <mxCell id="vZGH5NI2vkxD4eYKZadg-20" value="F&lt;sub&gt;&amp;nbsp;3 on 2,y&lt;/sub&gt;" style="edgeLabel;html=1;align=center;verticalAlign=middle;resizable=0;points=[];" vertex="1" connectable="0" parent="vZGH5NI2vkxD4eYKZadg-19">
          <mxGeometry x="-0.1995" y="1" relative="1" as="geometry">
            <mxPoint as="offset" />
          </mxGeometry>
        </mxCell>
        <mxCell id="vZGH5NI2vkxD4eYKZadg-23" value="" style="endArrow=classic;html=1;rounded=0;exitX=0;exitY=0.5;exitDx=0;exitDy=0;dashed=1;" edge="1" parent="1" source="vZGH5NI2vkxD4eYKZadg-3">
          <mxGeometry width="50" height="50" relative="1" as="geometry">
            <mxPoint x="650" y="310" as="sourcePoint" />
            <mxPoint x="560" y="300" as="targetPoint" />
            <Array as="points" />
          </mxGeometry>
        </mxCell>
        <mxCell id="vZGH5NI2vkxD4eYKZadg-24" value="F&lt;sub&gt;3 on 2,x&lt;/sub&gt;" style="edgeLabel;html=1;align=center;verticalAlign=middle;resizable=0;points=[];" vertex="1" connectable="0" parent="vZGH5NI2vkxD4eYKZadg-23">
          <mxGeometry x="-0.1995" y="1" relative="1" as="geometry">
            <mxPoint y="-11" as="offset" />
          </mxGeometry>
        </mxCell>
        <mxCell id="vZGH5NI2vkxD4eYKZadg-25" value="" style="endArrow=classic;html=1;rounded=0;exitX=0.5;exitY=1;exitDx=0;exitDy=0;dashed=1;" edge="1" parent="1" source="vZGH5NI2vkxD4eYKZadg-4">
          <mxGeometry width="50" height="50" relative="1" as="geometry">
            <mxPoint x="670" y="330" as="sourcePoint" />
            <mxPoint x="520" y="180" as="targetPoint" />
            <Array as="points" />
          </mxGeometry>
        </mxCell>
        <mxCell id="vZGH5NI2vkxD4eYKZadg-26" value="F&lt;sub&gt;1 on 3,y&lt;/sub&gt;" style="edgeLabel;html=1;align=center;verticalAlign=middle;resizable=0;points=[];" vertex="1" connectable="0" parent="vZGH5NI2vkxD4eYKZadg-25">
          <mxGeometry x="-0.1995" y="1" relative="1" as="geometry">
            <mxPoint as="offset" />
          </mxGeometry>
        </mxCell>
        <mxCell id="vZGH5NI2vkxD4eYKZadg-28" value="" style="endArrow=classic;html=1;rounded=0;exitX=0;exitY=0.5;exitDx=0;exitDy=0;dashed=1;" edge="1" parent="1" source="vZGH5NI2vkxD4eYKZadg-4">
          <mxGeometry width="50" height="50" relative="1" as="geometry">
            <mxPoint x="465" y="79.63" as="sourcePoint" />
            <mxPoint x="420" y="80" as="targetPoint" />
            <Array as="points" />
          </mxGeometry>
        </mxCell>
        <mxCell id="vZGH5NI2vkxD4eYKZadg-29" value="F&lt;sub&gt;1 on 3,x&lt;/sub&gt;" style="edgeLabel;html=1;align=center;verticalAlign=middle;resizable=0;points=[];" vertex="1" connectable="0" parent="vZGH5NI2vkxD4eYKZadg-28">
          <mxGeometry x="-0.1995" y="1" relative="1" as="geometry">
            <mxPoint y="-11" as="offset" />
          </mxGeometry>
        </mxCell>
        <mxCell id="vZGH5NI2vkxD4eYKZadg-30" value="&lt;span style=&quot;font-size: 10px;&quot;&gt;M&lt;sub&gt;1&lt;/sub&gt;&lt;/span&gt;" style="ellipse;whiteSpace=wrap;html=1;aspect=fixed;" vertex="1" parent="1">
          <mxGeometry x="360" y="560" width="120" height="120" as="geometry" />
        </mxCell>
        <mxCell id="vZGH5NI2vkxD4eYKZadg-31" value="&lt;span style=&quot;font-size: 10px;&quot;&gt;M&lt;sub&gt;2&lt;/sub&gt;&lt;/span&gt;" style="ellipse;whiteSpace=wrap;html=1;aspect=fixed;" vertex="1" parent="1">
          <mxGeometry x="640" y="520" width="40" height="40" as="geometry" />
        </mxCell>
        <mxCell id="vZGH5NI2vkxD4eYKZadg-32" value="" style="endArrow=none;startArrow=classic;html=1;rounded=0;endFill=0;" edge="1" source="vZGH5NI2vkxD4eYKZadg-30" target="vZGH5NI2vkxD4eYKZadg-31" parent="1">
          <mxGeometry width="50" height="50" relative="1" as="geometry">
            <mxPoint x="440" y="560" as="sourcePoint" />
            <mxPoint x="490" y="510" as="targetPoint" />
          </mxGeometry>
        </mxCell>
        <mxCell id="vZGH5NI2vkxD4eYKZadg-33" value="F&lt;sub&gt;1 on 2&lt;/sub&gt;" style="edgeLabel;html=1;align=center;verticalAlign=middle;resizable=0;points=[];" vertex="1" connectable="0" parent="vZGH5NI2vkxD4eYKZadg-32">
          <mxGeometry x="0.1152" y="-1" relative="1" as="geometry">
            <mxPoint as="offset" />
          </mxGeometry>
        </mxCell>
        <mxCell id="vZGH5NI2vkxD4eYKZadg-34" value="" style="endArrow=classic;html=1;rounded=0;exitX=0;exitY=0.5;exitDx=0;exitDy=0;dashed=1;" edge="1" source="vZGH5NI2vkxD4eYKZadg-31" parent="1">
          <mxGeometry width="50" height="50" relative="1" as="geometry">
            <mxPoint x="650" y="550" as="sourcePoint" />
            <mxPoint x="520" y="540" as="targetPoint" />
            <Array as="points">
              <mxPoint x="620" y="540" />
            </Array>
          </mxGeometry>
        </mxCell>
        <mxCell id="vZGH5NI2vkxD4eYKZadg-40" value="F&lt;sub&gt;1 on 2, x&lt;/sub&gt;" style="edgeLabel;html=1;align=center;verticalAlign=middle;resizable=0;points=[];" vertex="1" connectable="0" parent="vZGH5NI2vkxD4eYKZadg-34">
          <mxGeometry x="-0.1026" relative="1" as="geometry">
            <mxPoint x="-26" y="-10" as="offset" />
          </mxGeometry>
        </mxCell>
        <mxCell id="vZGH5NI2vkxD4eYKZadg-38" value="" style="endArrow=classic;html=1;rounded=0;exitX=0.5;exitY=1;exitDx=0;exitDy=0;dashed=1;" edge="1" source="vZGH5NI2vkxD4eYKZadg-31" parent="1">
          <mxGeometry width="50" height="50" relative="1" as="geometry">
            <mxPoint x="600" y="540" as="sourcePoint" />
            <mxPoint x="660" y="680" as="targetPoint" />
            <Array as="points">
              <mxPoint x="660" y="610" />
            </Array>
          </mxGeometry>
        </mxCell>
        <mxCell id="vZGH5NI2vkxD4eYKZadg-39" value="F&lt;sub&gt;1 on 2,y&lt;/sub&gt;" style="edgeLabel;html=1;align=center;verticalAlign=middle;resizable=0;points=[];" vertex="1" connectable="0" parent="vZGH5NI2vkxD4eYKZadg-38">
          <mxGeometry x="-0.1995" y="1" relative="1" as="geometry">
            <mxPoint as="offset" />
          </mxGeometry>
        </mxCell>
        <mxCell id="vZGH5NI2vkxD4eYKZadg-44" value="" style="verticalLabelPosition=bottom;verticalAlign=top;html=1;shape=mxgraph.basic.arc;startAngle=0.7894197126361777;endAngle=0.093950236715261;rotation=-85;" vertex="1" parent="1">
          <mxGeometry x="600" y="537" width="20" height="20" as="geometry" />
        </mxCell>
        <mxCell id="vZGH5NI2vkxD4eYKZadg-45" value="θ" style="text;html=1;strokeColor=none;fillColor=none;align=center;verticalAlign=middle;whiteSpace=wrap;rounded=0;" vertex="1" parent="1">
          <mxGeometry x="600" y="544.5" width="20" height="5" as="geometry" />
        </mxCell>
        <mxCell id="vZGH5NI2vkxD4eYKZadg-46" value="r&lt;sub&gt;13&lt;/sub&gt;" style="shape=curlyBracket;whiteSpace=wrap;html=1;rounded=1;flipH=1;labelPosition=right;verticalLabelPosition=middle;align=left;verticalAlign=middle;size=0.5;rotation=-160;flipV=1;" vertex="1" parent="1">
          <mxGeometry x="426" y="94.73" width="16.58" height="221.18" as="geometry" />
        </mxCell>
        <mxCell id="vZGH5NI2vkxD4eYKZadg-47" value="r&lt;sub&gt;23&lt;/sub&gt;" style="shape=curlyBracket;whiteSpace=wrap;html=1;rounded=1;flipH=1;labelPosition=right;verticalLabelPosition=middle;align=left;verticalAlign=middle;size=0.5;rotation=-35;flipV=1;" vertex="1" parent="1">
          <mxGeometry x="636.7" y="61.04" width="16.58" height="209.11" as="geometry" />
        </mxCell>
        <mxCell id="vZGH5NI2vkxD4eYKZadg-48" value="r&lt;sub&gt;13&lt;/sub&gt;" style="shape=curlyBracket;whiteSpace=wrap;html=1;rounded=1;flipH=1;labelPosition=right;verticalLabelPosition=middle;align=left;verticalAlign=middle;size=0.5;rotation=71;flipV=1;" vertex="1" parent="1">
          <mxGeometry x="561.09" y="276.51" width="16.58" height="169.11" as="geometry" />
        </mxCell>
        <mxCell id="vZGH5NI2vkxD4eYKZadg-49" value="r&lt;sub&gt;13&lt;/sub&gt;" style="shape=curlyBracket;whiteSpace=wrap;html=1;rounded=1;flipH=1;labelPosition=right;verticalLabelPosition=middle;align=left;verticalAlign=middle;size=0.5;rotation=71;flipV=1;" vertex="1" parent="1">
          <mxGeometry x="561.09" y="520" width="16.58" height="169.11" as="geometry" />
        </mxCell>
      </root>
    </mxGraphModel>
  </diagram>
</mxfile>
